<svg width="36" height="36" viewBox="0 0 36 36" fill="none" xmlns="http://www.w3.org/2000/svg">
<path d="M10.5707 14.3804V23.4903L3.27584 17.6962C2.12313 9.73816 6.59093 2.33855 10.0123 0C6.17279 9.2146 8.86039 13.5078 10.5707 14.3804Z" fill="#306CFE"/>
<path d="M12.5097 10.5713H21.6196C22.4922 8.86093 26.7854 6.17334 36 10.0128C33.6614 6.59147 26.2618 2.12368 18.3038 3.27638L12.5097 10.5713Z" fill="#306CFE"/>
<path d="M23.4903 25.4295H14.3804C13.5078 27.1399 9.2146 29.8275 0 25.988C2.33855 29.4093 9.73816 33.8771 17.6962 32.7244L23.4903 25.4295Z" fill="#306CFE"/>
<path d="M25.429 12.5097V21.6196C27.1393 22.4922 29.8269 26.7854 25.9875 36C29.4088 33.6614 33.8766 26.2618 32.7239 18.3038L25.429 12.5097Z" fill="#306CFE"/>
</svg>
